<?xml version="1.0" encoding="UTF-8" standalone="no"?>
<!-- Created with Inkscape (http://www.inkscape.org/) -->

<svg
   version="1.1"
   id="svg1"
   width="6666.6665"
   height="3888"
   viewBox="0 0 6666.6665 3888"
   sodipodi:docname="indr26.eps"
   xmlns:inkscape="http://www.inkscape.org/namespaces/inkscape"
   xmlns:sodipodi="http://sodipodi.sourceforge.net/DTD/sodipodi-0.dtd"
   xmlns="http://www.w3.org/2000/svg"
   xmlns:svg="http://www.w3.org/2000/svg">
  <defs
     id="defs1" />
  <sodipodi:namedview
     id="namedview1"
     pagecolor="#ffffff"
     bordercolor="#000000"
     borderopacity="0.25"
     inkscape:showpageshadow="2"
     inkscape:pageopacity="0.0"
     inkscape:pagecheckerboard="0"
     inkscape:deskcolor="#d1d1d1">
    <inkscape:page
       x="0"
       y="0"
       inkscape:label="1"
       id="page1"
       width="6666.6665"
       height="3888"
       margin="0"
       bleed="0" />
  </sodipodi:namedview>
  <g
     id="g1"
     inkscape:groupmode="layer"
     inkscape:label="1">
    <g
       id="group-R5">
      <path
         id="path2"
         d="M 0,29160 H 50000 V 0 H 0 v 29160"
         style="fill:#ffffff;fill-opacity:0;fill-rule:evenodd;stroke:none"
         transform="matrix(0.13333333,0,0,-0.13333333,0,3888)" />
      <path
         id="path3"
         d="m 0,9842.5 c 7204.1,1203 16721,1232.3 26139.8,-3385.6 10643.5,-5218.5 14264.4,-4296 15489.7,-1796.9 636.6,1298.4 632.5,3028.2 628.8,4544.2 -3.3,1394.8 -6.3,2610.7 491.5,3174.4 749.9,849.1 2608,182.6 7250.2,-3664.2 v -146.7 c -4625.1,3849.3 -6452.9,4540.7 -7164.5,3734.9 -468.9,-530.9 -466,-1726.7 -462.7,-3098.4 3.7,-1528.3 7.9,-3272.1 -640.4,-4594.6 C 40480.1,2055.6 36815.8,1095 26089.5,6354 16687.9,10963.5 7187.65,10930.1 0,9727 Z m 50000,12215.1 v -145.9 c -6288.4,5032.6 -8816.2,4741.6 -10574.9,2750.1 -608.5,-689 -1128.7,-1583.4 -1680.3,-2531.8 C 35202.1,17757.8 31996.7,12246.2 16340.6,19922.2 8043.69,23990.1 3023.12,25784.3 0,26516.9 v 98.6 C 3050.52,25886 8094.42,24092.7 16390.9,20025 c 15560.2,-7629 18735.7,-2168.9 21254.7,2162.5 554.3,953.1 1077.1,1852 1693.7,2550.2 1793.9,2031.3 4352.4,2348.2 10660.7,-2680.1 z m 0,-635.6 v -145.9 c -6177.3,4952.5 -8666.4,4746.3 -10352,2837.7 -615.3,-696.8 -1127.6,-1622 -1672.7,-2606.4 C 35551.2,17129.5 32483.4,11589.1 16804.8,19276.1 8399.14,23397.3 3192.99,25118.1 0,25758.5 v 102.7 c 3218.25,-638.5 8446.52,-2359.6 16855.1,-6482.3 15580.8,-7639.1 18619.2,-2151.8 21020.1,2184.2 548,989.8 1063.1,1920.1 1687,2626.6 1720.9,1948.6 4240.6,2180.9 10437.8,-2767.7 z m 0,-635.4 v -146.1 c -6071.6,4876.4 -8522.3,4748.3 -10138.3,2918.4 -619.5,-701.6 -1121.1,-1655.2 -1656.5,-2673.5 C 35900,16501.8 32970.8,10931.6 17269.1,18630 8766.06,22799 3368.32,24444.3 0,24992.6 v 105.4 c 3391.9,-547 8810.62,-2193.4 17319.3,-6365.2 15601.7,-7649.4 18502,-2134.3 20784.4,2206.1 538.6,1024.1 1043,1983.4 1672.2,2695.9 1651.6,1870.1 4132.8,2024.4 10224.1,-2848.2 z m 0,-635.4 v -146.1 c -5970.5,4803.8 -8383.2,4747.8 -9933,2992.9 -621.6,-703.9 -1109.8,-1684 -1632.7,-2733.9 -2186.1,-4389.6 -4975.4,-9990.3 -20701,-2280.2 C 9141.88,22196.2 3548.3,23764 0,24219.9 v 107.5 c 3570.7,-455.2 9185.21,-2025 17783.6,-6240.7 15623.1,-7659.9 18384.1,-2116.2 20547.9,2228.6 526.1,1056.3 1017.1,2042.3 1649.8,2758.6 1585.4,1795.4 4028.7,1877.5 10018.7,-2922.7 z m 0,-635.4 v -146.2 C 44126.4,24104 41751.2,24115 40264.7,22431.8 39642,21726.7 39169.9,20722.7 38662.5,19643.4 36595.7,15248 33947.4,9615.8 18197.5,17337.8 9523.95,21590.4 3732.27,23077 0,23440 v 109 c 3753.74,-362.6 9565.62,-1851.6 18247.8,-6108.4 15645.5,-7670.8 18265.9,-2097.9 20310.9,2251.3 511.1,1087.1 986.7,2098.4 1620.2,2815.8 1522.4,1723.8 3928.1,1739.1 9821.1,-2991.9 z m 0,-635.3 v -146.3 c -5780.5,4667.9 -8118.7,4741.2 -9544.7,3126.5 -621.2,-703.5 -1075.4,-1730.2 -1565.4,-2837.6 -1947,-4401.3 -4453,-10065.9 -20228.2,-2331.4 C 9913.85,20980.7 3919.92,22385.1 0,22655.4 v 109.7 c 3940.65,-269.9 9954.22,-1676.7 18712,-5970.6 15668.1,-7681.9 18146.9,-2078.7 20072.9,2274.9 493.4,1115.4 950.9,2149.6 1584.6,2867.1 1462,1655.6 3830.6,1608.6 9630.5,-3056 z m 0,-635.3 v -146.4 c -5690.8,4603.9 -7992.7,4735.3 -9360.7,3186.3 -618.7,-700.6 -1053,-1748.1 -1523,-2881.7 C 37289.3,13996.2 34927.1,8298.4 19126,16045.6 10310.6,20367.7 4110.76,21688.7 0,21866.4 v 110.5 c 4130.94,-177.4 10349.9,-1501 19176.3,-5828.5 15691.5,-7693.4 18027.3,-2059.1 19834.1,2299 473.6,1142.4 911.3,2198.1 1543.2,2913.6 1404.1,1590 3736.2,1485.1 9446.4,-3115.8 z m 0,-635.4 v -146.4 c -5604.4,4542.4 -7870.4,4728.1 -9182.7,3242.2 -615,-696.5 -1027.5,-1762.9 -1475.5,-2921.1 C 37635,13371.4 35418,7639.3 19590.2,15399.5 10712.9,19751.9 4304.43,20988.3 0,21073.4 v 111.5 c 4324.05,-85 10751.6,-1324.5 19640.5,-5682.6 15715.7,-7705.2 17907.2,-2039 19594.5,2323.5 451.8,1168.1 867.8,2243.7 1496.5,2955.7 1348.7,1527.1 3645.1,1367.5 9268.5,-3171.7 z m 0,-635.5 v -146.2 c -5520.9,4483 -7751.6,4719.6 -9010.4,3294.2 -610,-690.7 -999.1,-1774.7 -1423.2,-2956.1 C 37980,12747.1 35909.7,6979.7 20054.5,14753.4 11119,19134.4 4500.63,20283.6 0,20275.8 v 112.2 c 4519.82,7.8 11157,-1144.8 20104.7,-5531.8 15740.5,-7717.4 17786.4,-2018.2 19353.9,2348.6 428,1192.3 820.7,2286.2 1445.2,2993.4 1295.3,1466.7 3556.8,1255.5 9096.2,-3223.9 z m 0,-635.6 v -146.1 c -5439.8,4425.2 -7636.2,4710.1 -8843.5,3343.1 -603.3,-683.3 -967.8,-1783.7 -1366.3,-2987.1 -283.5,-856 -584.2,-1763.9 -1002.8,-2617.8 -1738,-3544.7 -5475.5,-6095.9 -18268.7,176.5 C 11529.9,18514.4 4699.03,19576 0,19475.5 v 112.5 c 4717.83,100.5 11567.3,-964.4 20569,-5377.9 12704.4,-6228.9 16402.8,-3722.2 18115.5,-229 413.9,844.3 713.8,1749.7 996.6,2603.4 402.2,1214.8 770.1,2325.5 1389.7,3027 1243.9,1408.6 3471.1,1149.1 8929.2,-3272.8 z m 0,-635.4 V 15557 c -5361.2,4369.4 -7523.8,4699.8 -8681.5,3388.8 -596.5,-675.4 -934.7,-1790.3 -1306,-3014.1 -282.2,-930.2 -583.4,-1922.8 -1032.8,-2839.3 C 37292,9650.1 33538.2,7305.5 20982.9,13461.1 11945.1,17892.3 4899.38,18865.6 0,18672.7 v 112.8 c 4917.91,192.9 11981.9,-783.7 21033.2,-5221.5 12467.3,-6112.6 16181.5,-3811.6 17843.7,-421.3 445.3,908.2 745.1,1896.3 1026,2822.2 375.1,1236.3 716.8,2362.7 1329.8,3056.8 1194.5,1352.6 3387.9,1047.7 8767.3,-3318.4 z m 0,-635.4 v -146.4 c -5284.9,4315.2 -7414.4,4688.5 -8524.3,3431.7 -588.2,-666.1 -899.2,-1794.6 -1241.8,-3037.7 -275.2,-998.4 -570.6,-2070.2 -1048.1,-3044.1 C 37546,8926.7 33783.5,6766.7 21447.2,12815.1 12364,17268.5 5101.48,18152.9 0,17867.6 v 113.1 c 5119.72,285.3 12400.3,-602.6 21497.5,-5062.8 12249,-6005.6 15971.3,-3888.6 17585.5,-596.2 472.5,963.7 766.5,2030.6 1040.4,3024.3 346.3,1256.4 660.6,2396.9 1266.6,3083 1146.8,1298.7 3306.9,950.9 8610,-3361.1 z m 0,-635.4 v -146.4 c -5210.8,4262.7 -7307.7,4676.2 -8371.5,3471.7 -579.1,-655.8 -861.8,-1796.4 -1174.3,-3057.5 C 40190.8,13637.7 39906.4,12490.2 39403.8,11465 37809.6,8213.4 34044.3,6220.3 21911.4,12169 12786.4,16642.9 5305.14,17437.9 0,17060.4 v 113.4 c 5323.11,377.5 12822.2,-421 21961.7,-4902 12046.3,-5906.2 15770.9,-3955.4 17339.2,-756.5 497,1013.5 779.9,2155.1 1041.9,3212.4 316.1,1275.3 602,2428.8 1199.9,3105.9 1100.9,1246.6 3228.3,858.6 8457.3,-3401.1 z m 0,-635.4 v -146.4 c -5138.8,4211.7 -7203.7,4663.3 -8222.9,3509.1 -569.2,-644.4 -822.6,-1796.1 -1103.8,-3074.1 -247.1,-1123.1 -515.6,-2342.9 -1041.2,-3415 C 38081.7,7508.4 34318.2,5667.5 22375.6,11522.9 13211.7,16015.8 5510.16,16721.1 0,16251.5 v 113.8 c 5527.92,469.5 13247.1,-239.3 22425.9,-4739.6 11856.5,-5813.2 15578.9,-4014 17103.4,-904.7 518.7,1058 785.8,2271.9 1031.7,3389.4 284.5,1292.9 540.9,2457.9 1130.3,3125.3 1056.5,1196.3 3151.7,770.3 8308.7,-3438.6 z m 0,-635.3 v -146.6 c -5068.8,4162.2 -7102.2,4649.8 -8078.4,3544.3 -558.7,-632.6 -782,-1793.8 -1030.7,-3087.4 -227.1,-1181 -475.2,-2471.4 -1021.2,-3585.2 C 38361.3,6810.4 34603.2,5109.3 22839.9,10876.8 13638.9,15387.9 5716.58,16001.7 0,15440 v 114.3 c 5734.04,561.6 13674,-56.1 22890.2,-4574.7 11677.7,-5725.5 15394.4,-4065.5 16876.6,-1042.4 539,1099.2 785.6,2382.2 1011.4,3556.5 251.8,1309.6 477.8,2485.3 1057.6,3141.7 1013.6,1147.8 3077.3,685.9 8164.2,-3473.6 z m 0,-635.3 v -146.6 c -5000.7,4114 -7003.1,4635.5 -7937.8,3577.1 -547.5,-619.9 -739.8,-1789.5 -955,-3097.6 -203.3,-1236.3 -426.8,-2595.1 -991.6,-3747 C 38647.8,6118.5 34897.8,4546.4 23304.1,10230.6 14068.5,14758.8 5924.08,15280.9 0,14627.2 v 114.4 c 5941.43,653.6 14103.4,127.6 23354.4,-4408.1 C 34863,4690.9 38571.2,6222.4 40012.8,9162.7 c 557.1,1136.3 779.2,2486.5 981.3,3715.1 217.9,1325.2 412.8,2510.2 982.4,3155.2 972.2,1100.8 3004.8,605 8023.5,-3506.5 z m 0,-635.3 v -146.7 c -4934.3,4067.2 -6906.2,4620.9 -7800.7,3608 -535.7,-606.6 -696.5,-1783.5 -877.2,-3104.9 -176.2,-1289.3 -371,-2714.8 -952.9,-3901.7 C 38940.4,5431.7 35200.9,3979.2 23768.3,9584.5 14500.5,14128.5 6132.65,14558.6 0,13812.9 v 114.7 c 6149.8,745.5 14535,311.5 23818.6,-4240.2 11348,-5563.8 15045.3,-4151.5 16447.7,-1291.2 573.7,1170 767.2,2586 942.2,3866.7 183.1,1339.6 346.2,2532.7 905,3165.5 932.2,1055.5 2934.2,527.6 7886.5,-3537.2 z m 0,-635.3 v -146.7 c -4869.6,4021.5 -6811.5,4605.6 -7667.1,3636.8 -523.2,-592.5 -652.1,-1775.5 -797.2,-3109.2 -146,-1340.2 -308.3,-2831.1 -906,-4050 C 39238.6,4749.3 35511.6,3408.4 24232.6,8938.4 14934.6,13497.2 6342.12,13834.9 0,12997.5 v 115.1 c 6359.09,837.2 14968.7,495.3 24282.9,-4071.3 11194.8,-5488.7 14879.4,-4187.5 16244,-1404.3 588.6,1200.5 749.8,2681 894.7,4011.9 147.3,1352.9 278,2552.9 825.6,3173 893.4,1011.6 2865.2,453.3 7752.8,-3566 z m 0,-635.4 v -146.7 c -4806.4,3977.1 -6719,4589.9 -7536.8,3663.8 C 41953,13559.9 41856.7,12371.9 41747.6,11027 41635,9637.6 41508.9,8082.6 40896.8,6834.1 39542,4071 35829,2834.3 24696.8,8292.3 15370.5,12864.9 6552.43,13110.2 0,12181.3 v 115 c 6569.25,928.9 15404.3,679.5 24747.1,-3901.1 11048.4,-5416.9 14718.8,-4219.5 16046.8,-1510.8 602.2,1228.1 727.4,2772.1 839.2,4151.6 110.7,1365 208.4,2570.7 744.3,3177.5 855.8,969.1 2798.6,381.5 7622.6,-3593 z m 0,-635.4 v -146.5 c -4744.8,3933.6 -6628.4,4573.7 -7409.7,3689 -496.9,-562.7 -560.4,-1754.4 -632.6,-3109.3 -76.5,-1437.1 -162.7,-3055.8 -787.9,-4331 C 39850.3,3396.2 36152.5,2257.2 25161.1,7646.2 15808.1,12231.9 6763.5,12384.5 0,11364.1 v 115 c 6780.21,1020.4 15841.7,863.8 25211.3,-3730 10908.1,-5348.1 14562.9,-4248 15855.6,-1611.5 614.8,1253.9 700.4,2860.3 776.3,4286.6 73.3,1376.1 137.8,2586.4 661.3,3179.3 819.4,927.8 2733.5,312.5 7495.5,-3618.4 z m 0,-635.4 v -146.6 c -4684.2,3891 -6539.7,4557.4 -7285.6,3712.8 -483.2,-547.1 -513.5,-1741.4 -548.2,-3105.1 C 42128.4,8327.3 42085.7,6645.7 41448.4,5346 40163.1,2724.5 36481.6,1677.3 25625.3,7000.1 16247.4,11598 6975.28,11657.7 0,10545.9 v 115.3 c 6991.8,1111.8 16280.6,1048 25675.6,-3558.2 10773.2,-5282 14411.5,-4273.4 15670,-1706.7 626.2,1277.2 668.6,2945.5 706.1,4417.1 35.2,1386.1 66.1,2600 576.9,3178.4 784.1,887.9 2670,246.3 7371.4,-3642.1"
         style="fill:#000000;fill-opacity:1;fill-rule:nonzero;stroke:none"
         transform="matrix(0.13333333,0,0,-0.13333333,0,3888)" />
    </g>
  </g>
</svg>
